<svg width="160" height="49" viewBox="0 0 160 49" fill="none" xmlns="http://www.w3.org/2000/svg">
<g clip-path="url(#clip0_9196_44297)">
<path fill-rule="evenodd" clip-rule="evenodd" d="M154.094 48.516H6.49708C3.24191 48.516 0.590851 45.7817 0.590851 42.4515V6.0645C0.590851 2.72222 3.24191 0 6.49708 0H154.094C157.347 0 160.001 2.72222 160.001 6.0645V42.4515C160.001 45.7817 157.347 48.516 154.094 48.516Z" fill="url(#paint0_linear_9196_44297)"/>
<path d="M37.2036 23.2293C37.2172 22.1803 37.4958 21.1519 38.0136 20.2395C38.5314 19.3272 39.2715 18.5607 40.1652 18.0113C39.5975 17.2005 38.8485 16.5332 37.9778 16.0625C37.1072 15.5918 36.1387 15.3306 35.1494 15.2996C33.039 15.0781 30.9931 16.5624 29.9177 16.5624C28.8215 16.5624 27.1658 15.3216 25.3828 15.3583C24.2296 15.3956 23.1056 15.7309 22.1205 16.3317C21.1354 16.9325 20.3227 17.7782 19.7616 18.7865C17.331 22.9946 19.144 29.179 21.4722 32.5805C22.6371 34.2461 23.9985 36.1066 25.7798 36.0407C27.523 35.9684 28.174 34.9291 30.2782 34.9291C32.3628 34.9291 32.9736 36.0406 34.7911 35.9987C36.6616 35.9683 37.8401 34.3257 38.9641 32.6443C39.801 31.4575 40.4451 30.1458 40.8723 28.7579C39.7856 28.2982 38.8583 27.5289 38.2059 26.5458C37.5535 25.5626 37.2049 24.4092 37.2036 23.2293Z" fill="white"/>
<path d="M33.7698 13.0608C34.7897 11.8365 35.2921 10.2629 35.1705 8.67407C33.6123 8.83772 32.173 9.58241 31.1394 10.7598C30.634 11.3349 30.2469 12.004 30.0003 12.7289C29.7537 13.4537 29.6523 14.2201 29.7021 14.9841C30.4814 14.9921 31.2524 14.8232 31.957 14.4901C32.6616 14.1569 33.2814 13.6683 33.7698 13.0608Z" fill="white"/>
<path d="M58.9564 31.1766H53.178L51.7904 35.1601H49.3429L54.816 20.4224H57.3589L62.8321 35.1601H60.3428L58.9564 31.1766ZM53.7765 29.3385H58.3568L56.0988 22.8736H56.0356L53.7765 29.3385Z" fill="white"/>
<path d="M74.6482 29.7883C74.6482 33.1273 72.8099 35.2726 70.0357 35.2726C69.333 35.3083 68.6341 35.1509 68.0191 34.8185C67.4041 34.486 66.8978 33.9919 66.5582 33.3927H66.5057V38.7147H64.2371V24.4152H66.433V26.2023H66.4748C66.83 25.606 67.3448 25.1145 67.9645 24.78C68.5842 24.4455 69.2856 24.2806 69.994 24.3028C72.7991 24.3028 74.6482 26.4585 74.6482 29.7883ZM72.3163 29.7883C72.3163 27.6128 71.1599 26.1826 69.3955 26.1826C67.6621 26.1826 66.4962 27.643 66.4962 29.7883C66.4962 31.9532 67.6621 33.4031 69.3955 33.4031C71.1599 33.4031 72.3163 31.9834 72.3163 29.7883Z" fill="white"/>
<path d="M86.8159 29.7882C86.8159 33.1273 84.9776 35.2726 82.2035 35.2726C81.5007 35.3083 80.8019 35.1509 80.1868 34.8185C79.5718 34.486 79.0656 33.9919 78.726 33.3927H78.6735V38.7147H76.4048V24.4152H78.6007V26.2023H78.6425C78.9977 25.606 79.5125 25.1144 80.1322 24.78C80.7519 24.4455 81.4533 24.2805 82.1617 24.3028C84.9669 24.3028 86.8159 26.4585 86.8159 29.7882ZM84.4841 29.7882C84.4841 27.6128 83.3277 26.1826 81.5633 26.1826C79.8299 26.1826 78.664 27.643 78.664 29.7882C78.664 31.9532 79.8299 33.4031 81.5633 33.4031C83.3277 33.4031 84.4841 31.9834 84.4841 29.7882H84.4841Z" fill="white"/>
<path d="M94.8532 31.0539C95.0213 32.5154 96.4817 33.475 98.4774 33.475C100.39 33.475 101.765 32.5153 101.765 31.1976C101.765 30.0536 100.936 29.3687 98.9709 28.8993L97.0063 28.4392C94.2226 27.7855 92.9303 26.5199 92.9303 24.4662C92.9303 21.9234 95.2097 20.1768 98.4464 20.1768C101.65 20.1768 103.846 21.9234 103.92 24.4662H101.629C101.492 22.9954 100.242 22.1076 98.4142 22.1076C96.5866 22.1076 95.336 23.0059 95.336 24.3132C95.336 25.3551 96.1348 25.9682 98.0887 26.4376L99.7589 26.8363C102.869 27.5514 104.162 28.766 104.162 30.9217C104.162 33.6789 101.902 35.4058 98.3092 35.4058C94.9474 35.4058 92.6775 33.7195 92.5309 31.0538L94.8532 31.0539Z" fill="white"/>
<path d="M109.063 21.876V24.4188H111.165V26.1654H109.063V32.089C109.063 33.0092 109.484 33.438 110.408 33.438C110.657 33.4338 110.907 33.4168 111.154 33.387V35.1232C110.739 35.1986 110.317 35.2328 109.894 35.2252C107.656 35.2252 106.784 34.4081 106.784 32.3242V26.1654H105.177V24.4188H106.784V21.876H109.063Z" fill="white"/>
<path d="M112.383 29.7889C112.383 26.4081 114.431 24.2837 117.625 24.2837C120.829 24.2837 122.868 26.4081 122.868 29.7889C122.868 33.1789 120.84 35.2941 117.625 35.2941C114.41 35.2941 112.383 33.1789 112.383 29.7889ZM120.556 29.7889C120.556 27.4697 119.463 26.101 117.625 26.101C115.786 26.101 114.694 27.4802 114.694 29.7889C114.694 32.1173 115.786 33.4756 117.625 33.4756C119.463 33.4756 120.556 32.1173 120.556 29.7889H120.556Z" fill="white"/>
<path d="M124.74 24.4151H126.904V26.2439H126.956C127.103 25.6728 127.447 25.168 127.931 24.8144C128.415 24.4609 129.01 24.2802 129.615 24.3026C129.876 24.3018 130.137 24.3294 130.392 24.3849V26.4479C130.062 26.3499 129.718 26.3049 129.373 26.3147C129.043 26.3017 128.714 26.3582 128.409 26.4803C128.104 26.6024 127.83 26.7872 127.606 27.022C127.381 27.2569 127.211 27.5362 127.108 27.8408C127.005 28.1455 126.971 28.4682 127.009 28.7868V35.16H124.74L124.74 24.4151Z" fill="white"/>
<path d="M140.848 32.0049C140.542 33.9554 138.588 35.2941 136.089 35.2941C132.873 35.2941 130.878 33.1998 130.878 29.8399C130.878 26.4695 132.884 24.2837 135.993 24.2837C139.051 24.2837 140.974 26.3258 140.974 29.5837V30.3394H133.168V30.4727C133.132 30.8681 133.183 31.2665 133.317 31.6413C133.452 32.0162 133.667 32.3589 133.948 32.6468C134.229 32.9346 134.57 33.161 134.948 33.3109C135.326 33.4608 135.733 33.5308 136.141 33.5162C136.677 33.565 137.215 33.4443 137.675 33.172C138.135 32.8997 138.492 32.4903 138.693 32.0048L140.848 32.0049ZM133.178 28.7979H138.704C138.724 28.4424 138.669 28.0866 138.541 27.7528C138.413 27.4191 138.216 27.1146 137.962 26.8586C137.707 26.6025 137.401 26.4003 137.062 26.2648C136.723 26.1292 136.359 26.0632 135.993 26.0708C135.624 26.0687 135.257 26.1377 134.916 26.2739C134.574 26.4101 134.263 26.6107 134.001 26.8643C133.74 27.1178 133.532 27.4192 133.391 27.7511C133.25 28.083 133.178 28.4388 133.178 28.798V28.7979Z" fill="white"/>
<path d="M53.6217 8.68673C54.1114 8.65159 54.6027 8.72557 55.0603 8.90331C55.5179 9.08105 55.9303 9.35814 56.2678 9.71458C56.6054 10.071 56.8596 10.4979 57.0122 10.9645C57.1648 11.4311 57.2119 11.9257 57.1501 12.4127C57.1501 14.8084 55.8554 16.1854 53.6217 16.1854H50.9131V8.68673H53.6217ZM52.0778 15.125H53.4916C53.8415 15.1459 54.1916 15.0885 54.5166 14.957C54.8415 14.8256 55.133 14.6233 55.3699 14.365C55.6067 14.1066 55.783 13.7987 55.8859 13.4636C55.9888 13.1286 56.0157 12.7748 55.9646 12.428C56.012 12.0826 55.9824 11.731 55.8779 11.3984C55.7735 11.0658 55.5967 10.7604 55.3604 10.5041C55.124 10.2478 54.8339 10.047 54.5108 9.91601C54.1878 9.78502 53.8397 9.7271 53.4916 9.74642H52.0778V15.125Z" fill="white"/>
<path d="M58.4676 13.3525C58.432 12.9806 58.4746 12.6054 58.5925 12.2509C58.7104 11.8964 58.9012 11.5705 59.1524 11.294C59.4037 11.0175 59.71 10.7966 60.0516 10.6455C60.3933 10.4943 60.7627 10.4163 61.1363 10.4163C61.5099 10.4163 61.8794 10.4943 62.221 10.6455C62.5627 10.7966 62.8689 11.0175 63.1202 11.294C63.3715 11.5705 63.5622 11.8964 63.6801 12.2509C63.7981 12.6054 63.8406 12.9806 63.805 13.3525C63.8413 13.7247 63.7992 14.1005 63.6816 14.4555C63.564 14.8106 63.3734 15.1371 63.1221 15.4141C62.8707 15.6911 62.5642 15.9125 62.2222 16.0639C61.8802 16.2154 61.5104 16.2937 61.1363 16.2937C60.7623 16.2937 60.3924 16.2154 60.0504 16.0639C59.7084 15.9125 59.4019 15.6911 59.1506 15.4141C58.8992 15.1371 58.7086 14.8106 58.591 14.4555C58.4734 14.1005 58.4314 13.7247 58.4676 13.3525ZM62.6563 13.3525C62.6563 12.1258 62.1052 11.4085 61.1382 11.4085C60.1674 11.4085 59.6213 12.1258 59.6213 13.3525C59.6213 14.589 60.1674 15.3008 61.1382 15.3008C62.1053 15.3008 62.6563 14.584 62.6563 13.3525H62.6563Z" fill="white"/>
<path d="M70.8942 16.1848H69.7356L68.5661 12.017H68.4777L67.313 16.1848H66.1655L64.6056 10.5259H65.7384L66.7521 14.844H66.8356L67.9991 10.5259H69.0705L70.2339 14.844H70.3223L71.3311 10.5259H72.4479L70.8942 16.1848Z" fill="white"/>
<path d="M73.7627 10.5245H74.8378V11.4235H74.9212C75.0628 11.1006 75.3016 10.8299 75.6043 10.6492C75.907 10.4685 76.2586 10.3867 76.61 10.4152C76.8853 10.3945 77.1618 10.4361 77.4189 10.5367C77.676 10.6374 77.9072 10.7946 78.0953 10.9967C78.2834 11.1989 78.4237 11.4407 78.5056 11.7044C78.5875 11.9681 78.6091 12.2469 78.5687 12.52V16.1834H77.4519V12.8005C77.4519 11.8911 77.0567 11.4388 76.2307 11.4388C76.0438 11.4301 75.8571 11.4619 75.6836 11.5321C75.5101 11.6022 75.3539 11.7091 75.2255 11.8453C75.0972 11.9815 74.9998 12.1439 74.9401 12.3212C74.8804 12.4986 74.8597 12.6868 74.8795 12.8729V16.1834H73.7627L73.7627 10.5245Z" fill="white"/>
<path d="M80.3483 8.31641H81.4651V16.1845H80.3483V8.31641Z" fill="white"/>
<path d="M83.0185 13.3504C82.9829 12.9785 83.0255 12.6032 83.1434 12.2487C83.2614 11.8942 83.4521 11.5683 83.7034 11.2918C83.9547 11.0154 84.261 10.7945 84.6027 10.6433C84.9444 10.4921 85.3139 10.4141 85.6875 10.4141C86.0611 10.4141 86.4306 10.4921 86.7722 10.6433C87.1139 10.7945 87.4202 11.0154 87.6715 11.2918C87.9228 11.5683 88.1135 11.8942 88.2315 12.2487C88.3495 12.6032 88.392 12.9785 88.3565 13.3504C88.3927 13.7227 88.3506 14.0984 88.233 14.4535C88.1153 14.8085 87.9247 15.135 87.6733 15.412C87.4219 15.689 87.1154 15.9104 86.7734 16.0618C86.4314 16.2133 86.0615 16.2916 85.6875 16.2916C85.3134 16.2916 84.9435 16.2133 84.6015 16.0618C84.2595 15.9104 83.953 15.689 83.7016 15.412C83.4503 15.135 83.2596 14.8085 83.142 14.4535C83.0243 14.0984 82.9822 13.7227 83.0185 13.3504ZM87.2071 13.3504C87.2071 12.1237 86.6561 11.4064 85.689 11.4064C84.7182 11.4064 84.1721 12.1237 84.1721 13.3504C84.1721 14.5869 84.7183 15.2987 85.689 15.2987C86.6561 15.2987 87.2071 14.5819 87.2071 13.3504H87.2071Z" fill="white"/>
<path d="M89.5312 14.5841C89.5312 13.5654 90.2897 12.9782 91.636 12.8947L93.1689 12.8064V12.3179C93.1689 11.7202 92.7737 11.3827 92.0103 11.3827C91.3869 11.3827 90.9549 11.6116 90.8309 12.0117H89.7497C89.8638 11.0397 90.7781 10.4163 92.0619 10.4163C93.4806 10.4163 94.2808 11.1225 94.2808 12.3179V16.1845H93.2057V15.3892H93.1173C92.938 15.6745 92.6861 15.907 92.3875 16.0631C92.0889 16.2192 91.7542 16.2933 91.4175 16.2777C91.18 16.3024 90.9399 16.2771 90.7127 16.2033C90.4855 16.1295 90.2763 16.009 90.0986 15.8494C89.9209 15.6898 89.7786 15.4948 89.6809 15.2769C89.5831 15.0589 89.5322 14.8229 89.5312 14.5841ZM93.1689 14.1005V13.6274L91.787 13.7158C91.0076 13.7679 90.6542 14.033 90.6542 14.5319C90.6542 15.0412 91.096 15.3376 91.7035 15.3376C91.8816 15.3556 92.0614 15.3377 92.2323 15.2848C92.4032 15.2319 92.5617 15.1451 92.6985 15.0297C92.8352 14.9143 92.9473 14.7726 93.0281 14.6129C93.1089 14.4533 93.1568 14.279 93.1689 14.1005Z" fill="white"/>
<path d="M95.7551 13.3526C95.7551 11.5644 96.6743 10.4316 98.1041 10.4316C98.4577 10.4153 98.8087 10.5 99.116 10.6759C99.4234 10.8517 99.6743 11.1113 99.8395 11.4245H99.9229V8.31641H101.04V16.1845H99.9696V15.2904H99.8812C99.7032 15.6014 99.4436 15.8578 99.1303 16.0319C98.8171 16.2059 98.4622 16.2909 98.1041 16.2777C96.6645 16.2778 95.7551 15.145 95.7551 13.3526ZM96.9087 13.3526C96.9087 14.5528 97.4745 15.2751 98.4208 15.2751C99.3621 15.2751 99.9438 14.5424 99.9438 13.3575C99.9438 12.1781 99.356 11.4349 98.4208 11.4349C97.4806 11.4349 96.9087 12.1621 96.9087 13.3526H96.9087Z" fill="white"/>
<path d="M105.657 13.3525C105.621 12.9806 105.664 12.6054 105.782 12.2509C105.9 11.8964 106.091 11.5705 106.342 11.294C106.593 11.0175 106.899 10.7966 107.241 10.6455C107.583 10.4943 107.952 10.4163 108.326 10.4163C108.699 10.4163 109.069 10.4943 109.41 10.6455C109.752 10.7966 110.058 11.0175 110.31 11.294C110.561 11.5705 110.752 11.8964 110.87 12.2509C110.987 12.6054 111.03 12.9806 110.994 13.3525C111.031 13.7247 110.989 14.1005 110.871 14.4555C110.753 14.8106 110.563 15.1371 110.311 15.4141C110.06 15.6911 109.754 15.9125 109.412 16.0639C109.07 16.2154 108.7 16.2937 108.326 16.2937C107.952 16.2937 107.582 16.2154 107.24 16.0639C106.898 15.9125 106.591 15.6911 106.34 15.4141C106.089 15.1371 105.898 14.8106 105.78 14.4555C105.663 14.1005 105.621 13.7247 105.657 13.3525ZM109.846 13.3525C109.846 12.1258 109.295 11.4085 108.328 11.4085C107.357 11.4085 106.811 12.1258 106.811 13.3525C106.811 14.589 107.357 15.3008 108.328 15.3008C109.295 15.3008 109.846 14.584 109.846 13.3525Z" fill="white"/>
<path d="M112.488 10.5245H113.564V11.4235H113.647C113.789 11.1006 114.027 10.8299 114.33 10.6492C114.633 10.4685 114.984 10.3867 115.336 10.4152C115.611 10.3945 115.888 10.4361 116.145 10.5367C116.402 10.6374 116.633 10.7946 116.821 10.9967C117.009 11.1989 117.149 11.4407 117.231 11.7044C117.313 11.9681 117.335 12.2469 117.294 12.52V16.1834H116.178V12.8005C116.178 11.8911 115.782 11.4388 114.956 11.4388C114.77 11.4301 114.583 11.4619 114.409 11.5321C114.236 11.6022 114.08 11.7091 113.951 11.8453C113.823 11.9815 113.726 12.1439 113.666 12.3212C113.606 12.4986 113.585 12.6868 113.605 12.8729V16.1834H112.488V10.5245Z" fill="white"/>
<path d="M123.606 9.11743V10.5521H124.832V11.4928H123.606V14.4027C123.606 14.9955 123.85 15.255 124.406 15.255C124.548 15.2546 124.691 15.246 124.832 15.2293V16.1595C124.631 16.1954 124.428 16.2145 124.224 16.2166C122.982 16.2166 122.488 15.7797 122.488 14.6886V11.4928H121.589V10.5521H122.488V9.11743H123.606Z" fill="white"/>
<path d="M126.362 8.31641H127.469V11.4349H127.557C127.706 11.109 127.951 10.8368 128.26 10.6554C128.569 10.474 128.926 10.3922 129.283 10.4212C129.557 10.4063 129.83 10.452 130.085 10.5551C130.339 10.6582 130.567 10.8162 130.753 11.0177C130.939 11.2192 131.079 11.4593 131.162 11.7208C131.244 11.9824 131.268 12.259 131.232 12.5309V16.1845H130.114V12.8064C130.114 11.9025 129.693 11.4447 128.904 11.4447C128.712 11.429 128.519 11.4554 128.338 11.522C128.157 11.5887 127.993 11.6941 127.858 11.8307C127.722 11.9674 127.618 12.132 127.552 12.3132C127.487 12.4943 127.462 12.6876 127.479 12.8794V16.1845H126.362L126.362 8.31641Z" fill="white"/>
<path d="M137.745 14.6566C137.593 15.1738 137.264 15.6212 136.816 15.9205C136.368 16.2197 135.829 16.3519 135.293 16.2938C134.92 16.3036 134.55 16.2322 134.207 16.0845C133.865 15.9368 133.558 15.7163 133.31 15.4384C133.061 15.1605 132.876 14.8318 132.767 14.4751C132.658 14.1184 132.628 13.7423 132.679 13.3729C132.629 13.0023 132.66 12.6253 132.768 12.2676C132.877 11.9098 133.061 11.5796 133.309 11.2993C133.556 11.0189 133.861 10.795 134.202 10.6427C134.544 10.4903 134.914 10.4132 135.288 10.4164C136.863 10.4164 137.812 11.4921 137.812 13.2691V13.6588H133.816V13.7214C133.799 13.9291 133.825 14.1381 133.893 14.3351C133.961 14.5321 134.069 14.7127 134.211 14.8653C134.353 15.018 134.526 15.1393 134.717 15.2215C134.909 15.3037 135.115 15.3449 135.324 15.3426C135.591 15.3747 135.861 15.3266 136.101 15.2044C136.341 15.0822 136.539 14.8915 136.67 14.6566L137.745 14.6566ZM133.816 12.8329H136.675C136.689 12.6429 136.663 12.4522 136.599 12.2728C136.535 12.0934 136.434 11.9295 136.303 11.7914C136.172 11.6533 136.013 11.5443 135.837 11.4711C135.661 11.398 135.472 11.3625 135.282 11.3669C135.089 11.3645 134.897 11.4007 134.718 11.4735C134.539 11.5464 134.377 11.6543 134.24 11.7909C134.103 11.9275 133.996 12.0901 133.923 12.269C133.85 12.448 133.814 12.6397 133.816 12.8329H133.816Z" fill="white"/>
</g>
<rect x="1.34085" y="0.75" width="157.91" height="47.016" rx="11.25" stroke="white" stroke-opacity="0.06" stroke-width="1.5"/>
<defs>
<linearGradient id="paint0_linear_9196_44297" x1="80.2957" y1="0" x2="80.2957" y2="48.516" gradientUnits="userSpaceOnUse">
<stop stop-color="#414152"/>
<stop offset="1" stop-color="#110E17"/>
</linearGradient>
<clipPath id="clip0_9196_44297">
<rect x="0.590851" width="159.41" height="48.516" rx="12" fill="white"/>
</clipPath>
</defs>
</svg>
