<svg width="160" height="49" viewBox="0 0 160 49" fill="none" xmlns="http://www.w3.org/2000/svg">
<g clip-path="url(#clip0_9196_44296)">
<path fill-rule="evenodd" clip-rule="evenodd" d="M153.503 48.516H5.90623C2.65106 48.516 0 45.7817 0 42.4515V6.0645C0 2.72222 2.65106 0 5.90623 0H153.503C156.756 0 159.41 2.72222 159.41 6.0645V42.4515C159.41 45.7817 156.756 48.516 153.503 48.516Z" fill="url(#paint0_linear_9196_44296)"/>
<path d="M84.0725 15.1612C83.1144 15.1612 82.3067 14.826 81.668 14.1661C81.0345 13.5246 80.6808 12.6404 80.6967 11.7376C80.6967 10.7741 81.024 9.9585 81.668 9.31179C82.3041 8.65188 83.1117 8.31665 84.0698 8.31665C85.0174 8.31665 85.825 8.65188 86.4743 9.31179C87.1183 9.97961 87.4456 10.7953 87.4456 11.7376C87.435 12.7037 87.1077 13.5193 86.4743 14.1634C85.8382 14.8286 85.0306 15.1612 84.0725 15.1612ZM55.5644 15.1612C54.6275 15.1612 53.8145 14.8312 53.1494 14.1793C52.4896 13.5299 52.1544 12.709 52.1544 11.7402C52.1544 10.7715 52.4896 9.95058 53.1494 9.30123C53.8013 8.64924 54.6143 8.31929 55.5644 8.31929C56.029 8.31929 56.4803 8.41168 56.9132 8.59909C57.3381 8.78122 57.6839 9.02935 57.9399 9.33291L58.0032 9.40946L57.288 10.1116L57.2141 10.0245C56.8102 9.54408 56.2692 9.30915 55.5539 9.30915C54.9152 9.30915 54.3582 9.53616 53.899 9.98489C53.4371 10.4363 53.2022 11.0275 53.2022 11.7429C53.2022 12.4582 53.4371 13.0495 53.899 13.5009C54.3582 13.9496 54.9152 14.1766 55.5539 14.1766C56.2348 14.1766 56.8076 13.9496 57.2537 13.5009C57.5176 13.2369 57.6812 12.8674 57.7393 12.4001H55.4457V11.4129H58.7238L58.737 11.5027C58.7607 11.669 58.7845 11.8405 58.7845 11.9989C58.7845 12.9096 58.51 13.6461 57.9663 14.1898C57.3487 14.8339 56.541 15.1612 55.5644 15.1612ZM93.4687 15.0213H92.4578L89.3618 10.0667L89.3882 10.9589V15.0187H88.3773V8.45919H89.5307L89.5624 8.50934L92.4736 13.1762L92.4472 12.2866V8.45919H93.4687V15.0213ZM76.4763 15.0213H75.4522V9.44641H73.6759V8.45919H78.25V9.44641H76.4737V15.0213H76.4763ZM72.8419 15.0213H71.8204V8.45919H72.8419V15.0213ZM67.1012 15.0213H66.0798V9.44641H64.3035V8.45919H68.8775V9.44641H67.1012V15.0213ZM63.6568 15.0107H59.74V8.45919H63.6568V9.44641H60.764V11.2466H63.3744V12.2233H60.764V14.0235H63.6568V15.0107ZM82.4176 13.4877C82.8742 13.9443 83.4284 14.174 84.0725 14.174C84.7349 14.174 85.276 13.9496 85.7273 13.4877C86.176 13.0389 86.403 12.4503 86.403 11.7402C86.403 11.0302 86.176 10.4389 85.73 9.99281C85.2734 9.53616 84.7165 9.30651 84.0751 9.30651C83.4126 9.30651 82.8715 9.53088 82.4228 9.99281C81.9741 10.4415 81.7472 11.0302 81.7472 11.7402C81.7472 12.4503 81.9715 13.0416 82.4176 13.4877Z" fill="white"/>
<path fill-rule="evenodd" clip-rule="evenodd" d="M80.8023 25.7036C78.3081 25.7036 76.2863 27.5962 76.2863 30.2067C76.2863 32.7936 78.3213 34.7099 80.8023 34.7099C83.2965 34.7099 85.3183 32.8041 85.3183 30.2067C85.3183 27.5962 83.2965 25.7036 80.8023 25.7036ZM80.8023 32.9256C79.4377 32.9256 78.2632 31.7958 78.2632 30.1962C78.2632 28.5728 79.4404 27.4668 80.8023 27.4668C82.1669 27.4668 83.3414 28.5728 83.3414 30.1962C83.344 31.8064 82.1669 32.9256 80.8023 32.9256ZM70.9494 25.7036C68.4552 25.7036 66.4335 27.5962 66.4335 30.2067C66.4335 32.7936 68.4684 34.7099 70.9494 34.7099C73.4437 34.7099 75.4654 32.8041 75.4654 30.2067C75.4654 27.5962 73.441 25.7036 70.9494 25.7036ZM70.9494 32.9256C69.5849 32.9256 68.4104 31.7958 68.4104 30.1962C68.4104 28.5728 69.5875 27.4668 70.9494 27.4668C72.314 27.4668 73.4885 28.5728 73.4885 30.1962C73.4885 31.8064 72.314 32.9256 70.9494 32.9256ZM59.2253 27.0788V28.9846H63.7993C63.6595 30.0537 63.3058 30.8429 62.7647 31.384C62.0943 32.0545 61.0597 32.783 59.2358 32.783C56.4249 32.783 54.2263 30.5129 54.2263 27.7017C54.2263 24.8905 56.4249 22.6205 59.2358 22.6205C60.7535 22.6205 61.8594 23.2197 62.6802 23.9852L64.0316 22.6337C62.8914 21.5409 61.3737 20.7041 59.2464 20.7041C55.3903 20.7041 52.1544 23.8453 52.1544 27.6912C52.1544 31.5477 55.3876 34.6783 59.2464 34.6783C61.3289 34.6783 62.8914 33.9972 64.1266 32.7144C65.3856 31.4553 65.7842 29.6788 65.7842 28.2455C65.7842 27.7994 65.7499 27.3982 65.6786 27.0577H59.2226C59.2253 27.055 59.2253 27.0788 59.2253 27.0788ZM107.18 28.5623C106.803 27.5513 105.663 25.693 103.324 25.693C101.007 25.693 99.0801 27.517 99.0801 30.1962C99.0801 32.7249 100.986 34.6994 103.549 34.6994C105.607 34.6994 106.806 33.4403 107.299 32.7012L105.771 31.677C105.264 32.4293 104.559 32.9229 103.559 32.9229C102.548 32.9229 101.841 32.4636 101.371 31.5582L107.391 29.0638C107.391 29.0664 107.18 28.5623 107.18 28.5623ZM101.041 30.0668C100.994 28.3273 102.392 27.4431 103.393 27.4431C104.182 27.4431 104.839 27.8311 105.064 28.396L101.041 30.0668ZM96.1503 34.4301H98.1272V21.2004H96.1503V34.4301ZM92.9039 26.704H92.8326C92.3866 26.1734 91.5393 25.693 90.4572 25.693C88.211 25.693 86.1418 27.6701 86.1418 30.2094C86.1418 32.7381 88.2005 34.6915 90.4572 34.6915C91.5261 34.6915 92.3866 34.2084 92.8326 33.6673H92.9039V34.314C92.9039 36.0324 91.9854 36.9589 90.5047 36.9589C89.2932 36.9589 88.541 36.0878 88.2348 35.3593L86.5166 36.0773C87.0101 37.2651 88.3272 38.7354 90.502 38.7354C92.8194 38.7354 94.7831 37.3707 94.7831 34.0421V25.9622H92.9144V26.704C92.9171 26.704 92.9039 26.704 92.9039 26.704ZM90.634 32.9256C89.2694 32.9256 88.1292 31.7852 88.1292 30.2094C88.1292 28.6203 89.2694 27.4695 90.634 27.4695C91.9854 27.4695 93.0332 28.6335 93.0332 30.2094C93.0464 31.7852 91.988 32.9256 90.634 32.9256ZM116.437 21.2004H111.71V34.4301H113.686V29.4201H116.439C118.627 29.4201 120.778 27.8337 120.778 25.3155C120.778 22.7973 118.635 21.2004 116.437 21.2004ZM116.495 27.5724H113.684V23.0323H116.495C117.975 23.0323 118.812 24.2544 118.812 25.3023C118.812 26.3397 117.965 27.5724 116.495 27.5724ZM128.702 25.6798C127.266 25.6798 125.785 26.3159 125.173 27.7017L126.926 28.4303C127.303 27.7017 127.995 27.4536 128.726 27.4536C129.75 27.4536 130.784 28.066 130.808 29.1588V29.2987C130.454 29.0981 129.678 28.7919 128.749 28.7919C126.857 28.7919 124.938 29.8266 124.938 31.7668C124.938 33.5432 126.49 34.6836 128.219 34.6836C129.547 34.6836 130.278 34.0844 130.734 33.3901H130.806V34.4143H132.711V29.3462C132.711 26.9864 130.959 25.6798 128.702 25.6798ZM128.454 32.9256C127.807 32.9256 126.902 32.6088 126.902 31.7958C126.902 30.7716 128.032 30.3836 128.995 30.3836C129.866 30.3836 130.278 30.571 130.795 30.8297C130.652 32.0175 129.649 32.915 128.454 32.9256ZM139.663 25.9622L137.393 31.7008H137.322L134.97 25.9622H132.843L136.372 33.9841L134.361 38.4424H136.419L141.849 25.9622H139.663ZM121.869 34.4301H123.845V21.2004H121.869V34.4301Z" fill="white"/>
<path fill-rule="evenodd" clip-rule="evenodd" d="M34.7781 18.8471L19.3139 10.0625C18.4086 9.54511 17.5956 9.61638 17.1153 10.1337L30.3096 23.316L34.7781 18.8471Z" fill="url(#paint1_linear_9196_44296)"/>
<path fill-rule="evenodd" clip-rule="evenodd" d="M17.1159 10.1194C16.8097 10.4493 16.6329 10.9535 16.6329 11.6134V35.0189C16.6329 35.6788 16.8097 36.183 17.1265 36.4998L17.2083 36.571L30.3208 23.4574V23.1644L17.1977 10.0481L17.1159 10.1194Z" fill="url(#paint2_linear_9196_44296)"/>
<path fill-rule="evenodd" clip-rule="evenodd" d="M34.6859 27.8413L30.3125 23.4674V23.1612L34.6859 18.7874L34.781 18.8454L39.9542 21.786C41.4349 22.6201 41.4349 23.998 39.9542 24.8426L34.781 27.7832L34.6859 27.8413Z" fill="url(#paint3_linear_9196_44296)"/>
<path fill-rule="evenodd" clip-rule="evenodd" d="M34.7781 27.7853L30.3096 23.3164L17.1153 36.5119C17.5983 37.0293 18.4086 37.0873 19.3139 36.5832L34.7781 27.7853Z" fill="url(#paint4_linear_9196_44296)"/>
<path opacity="0.25" fill-rule="evenodd" clip-rule="evenodd" d="M19.3145 10.2155L39.9519 21.9408C40.6223 22.3182 40.9997 22.8118 41.0578 23.316C41.0578 22.7643 40.6936 22.21 39.9519 21.7877L19.3145 10.0624C17.8338 9.21513 16.6329 9.92255 16.6329 11.6145V11.7676C16.6329 10.073 17.8338 9.37879 19.3145 10.2155Z" fill="white"/>
</g>
<rect x="0.75" y="0.75" width="157.91" height="47.016" rx="11.25" stroke="white" stroke-opacity="0.06" stroke-width="1.5"/>
<defs>
<linearGradient id="paint0_linear_9196_44296" x1="79.7048" y1="0" x2="79.7048" y2="48.516" gradientUnits="userSpaceOnUse">
<stop stop-color="#414152"/>
<stop offset="1" stop-color="#110E17"/>
</linearGradient>
<linearGradient id="paint1_linear_9196_44296" x1="13.7928" y1="2.33549" x2="21.3166" y2="15.0109" gradientUnits="userSpaceOnUse">
<stop stop-color="#32A071"/>
<stop offset="0.0685" stop-color="#2DA771"/>
<stop offset="0.4762" stop-color="#15CF74"/>
<stop offset="0.8009" stop-color="#06E775"/>
<stop offset="1" stop-color="#00F076"/>
</linearGradient>
<linearGradient id="paint2_linear_9196_44296" x1="29.1446" y1="11.3609" x2="8.14041" y2="16.957" gradientUnits="userSpaceOnUse">
<stop stop-color="#00A0FF"/>
<stop offset="0.00657" stop-color="#00A1FF"/>
<stop offset="0.2601" stop-color="#00BEFF"/>
<stop offset="0.5122" stop-color="#00D2FF"/>
<stop offset="0.7604" stop-color="#00DFFF"/>
<stop offset="1" stop-color="#00E3FF"/>
</linearGradient>
<linearGradient id="paint3_linear_9196_44296" x1="41.8851" y1="23.3143" x2="16.2753" y2="23.3143" gradientUnits="userSpaceOnUse">
<stop stop-color="#FFE000"/>
<stop offset="0.4087" stop-color="#FFBD00"/>
<stop offset="0.7754" stop-color="#FFA500"/>
<stop offset="1" stop-color="#FF9C00"/>
</linearGradient>
<linearGradient id="paint4_linear_9196_44296" x1="32.3483" y1="25.7481" x2="15.4842" y2="54.1292" gradientUnits="userSpaceOnUse">
<stop stop-color="#FF3A44"/>
<stop offset="1" stop-color="#C31162"/>
</linearGradient>
<clipPath id="clip0_9196_44296">
<rect width="159.41" height="48.516" rx="12" fill="white"/>
</clipPath>
</defs>
</svg>
