<svg width="109" height="30" viewBox="0 0 109 30" fill="none" xmlns="http://www.w3.org/2000/svg">
<g clip-path="url(#clip0_510_5566)">
<rect width="108.621" height="30"/>
<path d="M8.08124 29.9995H3.86368C3.85914 29.9987 3.85502 29.9964 3.85207 29.9928C3.84912 29.9893 3.84753 29.9848 3.8476 29.9802V4.265C3.84466 4.26331 3.84133 4.26242 3.83795 4.26242C3.83456 4.26242 3.83123 4.26331 3.8283 4.265H0.0193016C0.0141823 4.265 0.00926996 4.26297 0.00565007 4.25936C0.00203018 4.25574 0 4.25083 0 4.24572V0.0123504C0.00293433 0.0106577 0.00626251 0.00976562 0.00965078 0.00976562C0.013039 0.00976562 0.0163672 0.0106577 0.0193016 0.0123504H8.08124C8.08418 0.0106577 8.08751 0.00976562 8.09089 0.00976562C8.09428 0.00976562 8.09761 0.0106577 8.10055 0.0123504V29.977C8.10102 29.9798 8.10087 29.9826 8.10011 29.9854C8.09936 29.9881 8.09801 29.9906 8.09617 29.9928C8.09433 29.9949 8.09204 29.9966 8.08946 29.9978C8.08688 29.999 8.08407 29.9995 8.08124 29.9995Z" fill="white"/>
<path d="M23.6707 17.4828L32.302 8.85857C32.3037 8.85335 32.3037 8.84771 32.302 8.84249C31.3369 4.15268 27.5536 0.485049 22.786 0.00610352L22.7667 0.0253891V4.27483V4.2909C23.7548 4.46979 24.6887 4.87252 25.4967 5.46818C26.3048 6.06384 26.9655 6.83658 27.4282 7.7271C27.4299 7.7306 27.4308 7.73445 27.4308 7.73835C27.4308 7.74225 27.4299 7.74609 27.4282 7.7496L20.6724 14.4998V14.5223L23.6546 17.5021L23.6707 17.4828Z" fill="#E63C3C"/>
<path d="M28.2712 15.8917L28.2519 18.7107C28.2519 22.568 25.3083 25.7181 21.6923 25.7181C18.0763 25.7181 15.1327 22.5777 15.1295 18.7172L15.1778 11.1987C15.1778 7.77214 17.5069 4.85346 20.6468 4.29094C20.6487 4.28576 20.6487 4.28004 20.6468 4.27487V0.0286462L20.6242 0.0125732C15.1134 0.597594 10.9216 5.45777 10.9184 11.2019L10.8701 18.7236C10.8701 24.9306 15.7214 29.974 21.6859 29.974C27.6503 29.974 32.4952 24.9274 32.4984 18.7236L32.5466 11.6519C32.5449 11.6493 32.5425 11.6471 32.5397 11.6456C32.5369 11.6441 32.5337 11.6433 32.5306 11.6433C32.5274 11.6433 32.5242 11.6441 32.5214 11.6456C32.5186 11.6471 32.5162 11.6493 32.5145 11.6519L28.2712 15.8917Z" fill="white"/>
<path d="M48.8251 0.03583V13.5717C48.8221 13.5734 48.8188 13.5742 48.8154 13.5742C48.812 13.5742 48.8087 13.5734 48.8058 13.5717H46.9752H46.9592V4.33348C46.9592 4.32922 46.9575 4.32513 46.9544 4.32212C46.9514 4.3191 46.9473 4.31741 46.9431 4.31741C46.9388 4.31741 46.9347 4.3191 46.9317 4.32212C46.9287 4.32513 46.927 4.32922 46.927 4.33348L42.7609 13.5781C42.7591 13.5807 42.7567 13.5829 42.7539 13.5844C42.7511 13.5859 42.748 13.5867 42.7448 13.5867C42.7416 13.5867 42.7385 13.5859 42.7357 13.5844C42.7329 13.5829 42.7305 13.5807 42.7287 13.5781L38.6881 4.32705H38.6527V13.562H38.6366H36.8061H36.79V0.03583H36.8061H39.0098C39.0127 0.0341373 39.0161 0.0332452 39.0195 0.0332452C39.0228 0.0332452 39.0262 0.0341373 39.0291 0.03583L42.7191 8.8015C42.7191 8.8015 42.7448 8.8015 42.7512 8.8015L46.5956 0.03583C46.5981 0.0344194 46.6009 0.0336768 46.6037 0.0336768C46.6065 0.0336768 46.6093 0.0344194 46.6117 0.03583H48.7961C48.7979 0.0337778 48.8001 0.0321295 48.8026 0.0310037C48.8051 0.0298779 48.8078 0.0292969 48.8106 0.0292969C48.8133 0.0292969 48.816 0.0298779 48.8185 0.0310037C48.821 0.0321295 48.8232 0.0337778 48.8251 0.03583Z" fill="white"/>
<path d="M55.25 13.6263H53.4002C53.3972 13.628 53.3939 13.6289 53.3905 13.6289C53.3871 13.6289 53.3838 13.628 53.3809 13.6263V0.0357879C53.3838 0.0340952 53.3871 0.0332031 53.3905 0.0332031C53.3939 0.0332031 53.3972 0.0340952 53.4002 0.0357879H55.25V13.6102V13.6263Z" fill="white"/>
<path d="M69.8364 0.0354004V13.5905H69.8203H67.7099L61.7808 3.3848C61.7808 3.36873 61.7487 3.3848 61.7487 3.3848V13.5712H61.7326H59.9214V0.0354004H62.0511L67.9994 10.4886C67.9994 10.5047 68.0316 10.4886 68.0316 10.4886V0.0354004H68.0477H69.801H69.8364Z" fill="white"/>
<path d="M83.7585 0.0123504C83.7614 0.0106577 83.7647 0.00976562 83.7681 0.00976562C83.7715 0.00976562 83.7748 0.0106577 83.7778 0.0123504V8.82945C83.7509 9.86475 83.3947 10.8646 82.7607 11.6839C82.1267 12.5032 81.248 13.0994 80.252 13.386C79.256 13.6726 78.1945 13.6347 77.2215 13.2778C76.2485 12.9208 75.4146 12.2634 74.8408 11.401C74.3451 10.6326 74.0692 9.74329 74.043 8.82945V0.0123504H74.0591H75.8896C75.8925 0.0106577 75.8958 0.00976562 75.8992 0.00976562C75.9026 0.00976562 75.9059 0.0106577 75.9089 0.0123504V8.60444C75.8945 9.31 76.1236 9.99901 76.5577 10.5557C76.9918 11.1124 77.6045 11.5028 78.2927 11.6613C78.7282 11.7511 79.1783 11.7428 79.6102 11.637C80.0421 11.5313 80.445 11.3308 80.7897 11.0501C81.1344 10.7694 81.4122 10.4156 81.603 10.0142C81.7937 9.61287 81.8927 9.17411 81.8926 8.7298V0.0123504H81.9087H83.7585Z" fill="white"/>
<path d="M97.5608 0.0123504V1.78348C97.5608 1.78809 97.5593 1.79257 97.5563 1.7961C97.5534 1.79964 97.5492 1.80201 97.5447 1.80277L93.0119 1.78348H92.9958L93.0344 13.59H93.0183H91.1267C91.1237 13.5917 91.1204 13.5926 91.117 13.5926C91.1136 13.5926 91.1103 13.5917 91.1074 13.59L91.1267 1.78348H91.1106H86.6614C86.6563 1.78348 86.6514 1.78145 86.6477 1.77784C86.6441 1.77422 86.6421 1.76931 86.6421 1.7642V0.0123504C86.645 0.0106577 86.6484 0.00976562 86.6517 0.00976562C86.6551 0.00976562 86.6585 0.0106577 86.6614 0.0123504H97.5608Z" fill="white"/>
<path d="M108.624 11.8198V13.5909C108.621 13.5926 108.618 13.5935 108.614 13.5935C108.611 13.5935 108.607 13.5926 108.605 13.5909H100.391C100.388 13.5926 100.385 13.5935 100.382 13.5935C100.378 13.5935 100.375 13.5926 100.372 13.5909V0.0357879C100.375 0.0340952 100.378 0.0332031 100.382 0.0332031C100.385 0.0332031 100.388 0.0340952 100.391 0.0357879H108.605C108.607 0.0340952 108.611 0.0332031 108.614 0.0332031C108.618 0.0332031 108.621 0.0340952 108.624 0.0357879V1.82621C108.624 1.83132 108.622 1.83622 108.618 1.83984C108.615 1.84346 108.61 1.84549 108.605 1.84549H102.257C102.253 1.84543 102.248 1.84701 102.245 1.84996C102.241 1.85291 102.239 1.85702 102.238 1.86156V6.00171C102.239 6.00625 102.241 6.01037 102.245 6.01331C102.248 6.01626 102.253 6.01785 102.257 6.01778H107.083C107.086 6.01609 107.089 6.0152 107.092 6.0152C107.096 6.0152 107.099 6.01609 107.102 6.01778V7.78892C107.102 7.79404 107.1 7.79894 107.096 7.80256C107.093 7.80617 107.088 7.80821 107.083 7.80821H102.257C102.254 7.80651 102.251 7.80562 102.248 7.80562C102.244 7.80562 102.241 7.80651 102.238 7.80821V11.7523C102.238 11.7574 102.24 11.7623 102.244 11.7659C102.247 11.7695 102.252 11.7716 102.257 11.7716H108.605C108.611 11.769 108.618 11.7691 108.624 11.7718C108.631 11.7745 108.636 11.7796 108.638 11.786C108.641 11.7924 108.641 11.7996 108.638 11.8059C108.635 11.8122 108.63 11.8172 108.624 11.8198Z" fill="white"/>
<path d="M40.8758 29.9067C40.0939 29.9188 39.3197 29.7512 38.613 29.4168C37.9062 29.0824 37.2859 28.5902 36.7998 27.9781V27.9395L37.5622 26.6538C37.5636 26.651 37.5656 26.6488 37.5682 26.6472C37.5707 26.6455 37.5737 26.6447 37.5767 26.6447C37.5797 26.6447 37.5827 26.6455 37.5853 26.6472C37.5878 26.6488 37.5899 26.651 37.5912 26.6538C38.196 27.5184 39.3541 28.187 40.8951 28.2835H41.368C42.7642 28.2835 43.9674 27.1198 43.8355 25.7312C43.7229 24.5548 42.716 24.0597 41.4002 23.8604C41.1074 23.7833 40.8565 23.7833 40.4865 23.7254C38.5563 23.3558 36.8384 22.2307 36.8384 20.1896C36.8229 19.2053 37.1979 18.2549 37.8814 17.546C38.565 16.8371 39.5016 16.4274 40.4865 16.4062H40.7793C42.1144 16.4062 43.5427 16.9848 44.2634 17.8881C44.2657 17.8914 44.267 17.8953 44.267 17.8993C44.267 17.9034 44.2657 17.9073 44.2634 17.9106L43.4076 19.4889C43.4058 19.4909 43.4036 19.4926 43.4011 19.4937C43.3986 19.4948 43.3959 19.4954 43.3932 19.4954C43.3904 19.4954 43.3877 19.4948 43.3852 19.4937C43.3827 19.4926 43.3805 19.4909 43.3787 19.4889C42.6291 18.666 41.9117 18.2031 40.7761 18.1485H40.4833C39.9719 18.1726 39.4898 18.3942 39.1387 18.7666C38.7876 19.139 38.5949 19.633 38.6014 20.1446C38.6014 21.1732 39.3188 21.7357 40.4833 21.8932C40.9691 21.9511 41.3005 21.9704 41.4484 21.9897C43.7583 22.3111 45.5051 23.6194 45.5051 25.908C45.5051 28.1967 43.6521 29.8424 41.4002 29.9067H40.8758Z" fill="white"/>
<path d="M57.3955 28.6814C57.3955 28.6814 57.3955 28.7007 57.3955 28.7039C56.2541 29.5142 54.8869 29.946 53.4868 29.9383C51.6848 29.9383 49.9566 29.223 48.6824 27.9499C47.4082 26.6767 46.6924 24.9499 46.6924 23.1494C46.6924 21.3489 47.4082 19.6222 48.6824 18.349C49.9566 17.0759 51.6848 16.3606 53.4868 16.3606C54.8782 16.348 56.2386 16.7719 57.3762 17.5725C57.3792 17.5755 57.3808 17.5795 57.3808 17.5837C57.3808 17.5879 57.3792 17.5919 57.3762 17.595L56.5398 19.3468C56.5363 19.35 56.5317 19.3517 56.5269 19.3517C56.5222 19.3517 56.5176 19.35 56.5141 19.3468C55.8089 18.7715 54.947 18.421 54.0401 18.3407C51.5694 18.0932 49.2146 19.6747 48.732 22.1048C48.5215 23.0902 48.6222 24.1167 49.0201 25.0426C49.418 25.9685 50.0936 26.7483 50.9537 27.2744C51.8138 27.8006 52.816 28.0472 53.8223 27.9802C54.8286 27.9133 55.7893 27.5361 56.572 26.9006C56.572 26.9006 56.5913 26.9006 56.5977 26.9006L57.3955 28.6814Z" fill="white"/>
<path d="M69.3631 16.377V29.9064C69.3631 29.911 69.3615 29.9154 69.3586 29.919C69.3556 29.9225 69.3515 29.9249 69.347 29.9256H67.4972C67.4926 29.9249 67.4885 29.9225 67.4856 29.919C67.4826 29.9154 67.481 29.911 67.4811 29.9064V24.2715L67.465 24.2554H61.3043L61.2882 24.2715V29.9064C61.2883 29.911 61.2867 29.9154 61.2838 29.919C61.2808 29.9225 61.2767 29.9249 61.2722 29.9256H59.4223C59.4178 29.9249 59.4137 29.9225 59.4107 29.919C59.4078 29.9154 59.4062 29.911 59.4063 29.9064V16.377H59.4223H61.2722H61.2882V22.5293C61.2882 22.5339 61.2898 22.5384 61.2927 22.5419C61.2957 22.5455 61.2998 22.5478 61.3043 22.5486H67.465C67.4695 22.5478 67.4737 22.5455 67.4766 22.5419C67.4796 22.5384 67.4811 22.5339 67.4811 22.5293V16.377H67.4972H69.347H69.3631Z" fill="white"/>
<path d="M84.4606 23.1116C84.4606 26.8531 81.607 29.9197 77.8399 29.9197C74.2689 29.9197 71.4058 26.8531 71.4058 23.1116C71.4058 19.37 74.2786 16.342 77.8399 16.342C81.607 16.342 84.4606 19.3861 84.4606 23.1116ZM82.5979 23.1116C82.5979 20.4147 80.5583 18.2225 77.8399 18.2225C75.2984 18.2225 73.2588 20.4147 73.2588 23.1116C73.2588 25.8085 75.2984 28.0553 77.8399 28.0553C80.5583 28.0553 82.5979 25.8438 82.5979 23.1116Z" fill="white"/>
<path d="M99.0372 23.1116C99.0372 26.8531 96.1837 29.9197 92.4165 29.9197C88.8456 29.9197 85.9824 26.8531 85.9824 23.1116C85.9824 19.37 88.8585 16.342 92.4165 16.342C96.1837 16.342 99.0372 19.3861 99.0372 23.1116ZM97.1713 23.1116C97.1713 20.4147 95.1349 18.2225 92.4165 18.2225C89.8718 18.2225 87.8354 20.4147 87.8354 23.1116C87.8354 25.8085 89.8718 28.0553 92.4165 28.0553C95.1349 28.0553 97.1713 25.8438 97.1713 23.1116Z" fill="white"/>
<path d="M102.933 28.094H108.605C108.61 28.094 108.615 28.096 108.618 28.0996C108.622 28.1032 108.624 28.1081 108.624 28.1132V29.9069C108.624 29.912 108.622 29.9169 108.618 29.9205C108.615 29.9241 108.61 29.9262 108.605 29.9262H101.099C101.094 29.9262 101.089 29.9241 101.086 29.9205C101.082 29.9169 101.08 29.912 101.08 29.9069V16.3775C101.083 16.3758 101.086 16.3749 101.09 16.3749C101.093 16.3749 101.096 16.3758 101.099 16.3775H102.907V28.0779C102.908 28.0808 102.909 28.0836 102.91 28.0861C102.912 28.0885 102.914 28.0906 102.916 28.0922C102.919 28.0937 102.922 28.0947 102.925 28.095C102.927 28.0953 102.93 28.0949 102.933 28.094Z" fill="white"/>
</g>
<defs>
<clipPath id="clip0_510_5566">
<rect width="108.621" height="30" fill="white"/>
</clipPath>
</defs>
</svg>
